# xmcd
#
# Track frame offsets:
#	150
#	13585
#	26134
#	35583
#	49079
#	62152
#	74573
#	88238
#	99561
#	110915
#	122035
#	135359
#	162657
#
# Disc length: 2353 seconds
#
# Revision: 0
# Processed by: cddbd v1.4PL0 Copyright (c) Steve Scherf et al.
# Submitted via: dBpowerAMP V4.0
#
DISCID=bf092f0d
DTITLE=Albert and Freddie King - Kings of King
DYEAR=1900
DGENRE=Blues
TTITLE0=I Walked All Night Long
TTITLE1=This Morning
TTITLE2=King Blues
TTITLE3=Had You Told Me Like It Was
TTITLE4=Don't Throw Your Love On Me So Strong
TTITLE5=Let's Have A Natural Ball
TTITLE6=Travlin' To California
TTITLE7=Hide Away
TTITLE8=I'm Tore Down
TTITLE9=Wash Out
TTITLE10=Have You Ever Loved A Woman
TTITLE11=Low Tide
TTITLE12=The Stumble
EXTD=CEG
EXTT0=
EXTT1=
EXTT2=
EXTT3=
EXTT4=
EXTT5=
EXTT6=
EXTT7=
EXTT8=
EXTT9=
EXTT10=
EXTT11=
EXTT12=
PLAYORDER=
